<svg height="24" viewBox="0 0 24 24" width="24" xmlns="http://www.w3.org/2000/svg">
    <defs>
        <linearGradient id="svgGradient" x1="0%" y1="0%" x2="100%" y2="100%">
            <stop offset="0%" stop-color="#C97064" />
            <stop offset="100%" stop-color="#2196F3" />
        </linearGradient>
    </defs>
    <path d="m7 7h-2a2 2 0 0 0 -2 2v8h2v-4h2v4h2v-8a2 2 0 0 0 -2-2m0 4h-2v-2h2m7-2h-4v10h2v-4h2a2 2 0 0 0 2-2v-2a2 2 0 0 0 -2-2m0 4h-2v-2h2m6 0v6h1v2h-4v-2h1v-6h-1v-2h4v2z" fill="url(#svgGradient)"/>
</svg>
