<svg xmlns="http://www.w3.org/2000/svg" width="64" height="64" viewBox="0 0 32 32"><path d="M5.902 27.201L3.655 2h24.69l-2.25 25.197L15.985 30z" fill="#1572b6"/><path d="M16 27.858l8.17-2.265 1.922-21.532H16z" fill="#33a9dc"/><path d="M16 13.191h4.09l.282-3.165H16V6.935h7.75l-.074.829-.759 8.518H16z" fill="#fff"/><path d="M16.019 21.218l-.014.004-3.442-.93-.22-2.465H9.24l.433 4.853 6.331 1.758.015-.004z" fill="#ebebeb"/><path d="M19.827 16.151l-.372 4.139-3.447.93v3.216l6.336-1.756.047-.522.537-6.007z" fill="#fff"/><path d="M16.011 6.935v3.091H8.545l-.062-.695-.141-1.567-.074-.829zM16 13.191v3.091h-3.399l-.062-.695-.14-1.567-.074-.829z" fill="#ebebeb"/></svg>
