<svg viewBox="0 0 14 14" xmlns="http://www.w3.org/2000/svg">
    <defs>
        <linearGradient id="svgGradient" x1="0%" y1="0%" x2="100%" y2="100%">
            <stop offset="0%" stop-color="#C97064" />
            <stop offset="100%" stop-color="#2196F3" />
        </linearGradient>
    </defs>
<path d="m5.2557841 1.0800194c-1.7970173.222645-2.9083388.75103-3.0409108 1.454486-.024104.114177-.024104.75103-.012052 1.41833.024104.997779.041865 1.250237.1319377 1.411988.096416.186489.096416.216301 0 .468759-.090073.234063-.096416.414843-.065969 1.387883.024104.612749.072312 1.207738.1141769 1.316206.053917.150333.053917.234062 0 .354582-.090073.192198-.096416 1.8870896-.012052 2.3977136.036156.240406.1141769.426895.2283537.570885.5347283.6673 1.9530585 1.063748 4.0380555 1.129716 2.589911.08436 4.5670739-.40279 5.0358339-1.238184.126228-.216302.131937-.312718.131937-1.411987 0-.9311756-.01776-1.2261326-.09578-1.4119876-.07802-.198541-.07802-.264509-.01776-.378686.05392-.102125.07231-.450365.06026-1.28005-.01205-1.189976-.02981-1.364413-.162385-1.556611-.06597-.09642-.06026-.14399.01205-.294323.07802-.143989.09642-.408499.09007-1.460195-.0057-.745321-.03616-1.363779-.07802-1.477956-.162385-.498572-.883602-.95528-1.8629859-1.189976-1.202029-.282271-3.148744-.37234398-4.494762-.210593zm.276561.565175c-.01776.02981.318427.03616.769426.01776.6673-.0241 2.427526.07802 2.367901.138281-.01205.01205-.282271.04821-.607041.08436-.330478.03616-.648905.09642-.721217.131938-.119885.06597-.119885.07231-.01776.150332.102125.07231.09578.07802-.06026.114177-.492863.102125-.81129.228354-.925466.372344-.288614.366634-.03616.733269.582936.865207.468759.09642 2.319693.03616 2.830317-.09007.5651759-.14399.8531549-.306375.8531549-.48652 0-.246115-.360925-.426895-1.2318409-.607041-.463051-.09007-.168094-.108468.408499-.01776.5708849.09007 1.0339349.26451 1.1836339.456708.108468.14399.119885.240406.119885 1.285758 0 1.292102.01205 1.261654-.576593 1.532507-.8531549.402791-2.2416719.553124-4.6514379.510625-.456708-.01205-.492864-.01776-.366635-.09007s.08436-.08436-.420551-.114177c-.702823-.041867-1.3162068-.216304-1.6041862-.444658-.3488737-.276561-.5708843-.775134-.6006971-1.363779-.029813-.558832.078021-1.202028.1921977-1.160163.041865.01776.1319377-.08436.2163017-.234063.2404057-.456708.7630819-.769425 1.6225799-.985727.510624-.126229.685061-.14399.636853-.06597zm-2.2594329 4.506815c0 .246114.1198857.348239.5886449.48652 1.694892.510624 5.516646.444655 6.6102059-.114177.222645-.114177.252458-.150333.252458-.336187 0-.228354.06026-.26451.20425-.114177.114177.114177.108468.01205.09578 1.255945l-.0057 1.021883-.174437.162385c-.372344.342531-1.6644449.612749-3.2451599.685061-1.958768.09007-4.2004403-.294322-4.5429709-.781477-.065969-.09642-.084364-.354583-.084364-1.171581 0-.889311.012052-1.063748.1021248-1.15953.1382809-.156042.1985409-.131938.1985409.06597zm.1801457 3.437358c.5169672.378686 3.0827752.6311436 4.8195322.4808106.95528-.08436 1.7786219-.2404056 2.1750689-.4148426.26451-.119885.276562-.13828.276562-.366634 0-.168094.0241-.246115.08436-.246115.20425 0 .234063.162385.222011 1.2679976-.0057.600697-.02981 1.124008-.04187 1.165872-.04821.119886-.558833.372344-.985727.480812-.7269259.192198-1.4062789.276562-2.4941299.312718-2.006967.065968-3.8940566-.240406-4.4046809-.714874-.1262289-.126229-.1319377-.168094-.1319377-1.214081 0-1.0396436.00571-1.0878516.1382808-1.2261326l.1319377-.143989.029813.258166c.024104.180146.072312.282271.1801457.360292z" fill="url(#svgGradient)"/></svg>
