<svg xmlns="http://www.w3.org/2000/svg" width="64" height="64" viewBox="0 0 32 32"><path d="M20.34 2.004c-5.58 0-10.38 3.37-12.45 8.184l11.13 1.395a2.55 2.55 0 0 1 2.21 2.526v.018a2.55 2.55 0 0 1-2.21 2.526l-11.13 1.395a13.33 13.33 0 0 0 12.45 8.184c4.106 0 7.753-1.853 10.19-4.766l-8.87-3.95a2.55 2.55 0 0 1-1.53-2.34v-.015a2.55 2.55 0 0 1 1.53-2.34l8.87-3.95C28.09 3.857 24.45 2.004 20.34 2.004z" fill="#fec514"/><path d="M7.89 10.188A13.3 13.3 0 0 0 7 14.127c0 1.376.208 2.704.594 3.95l11.13-1.395a2.55 2.55 0 0 0 2.21-2.526v-.018a2.55 2.55 0 0 0-2.21-2.526z" fill="#00bfb3"/><path d="M30.53 9.867l-8.87 3.95a2.55 2.55 0 0 0-1.53 2.34v.015a2.55 2.55 0 0 0 1.53 2.34l8.87 3.95a13.23 13.23 0 0 0 .595-3.95 13.23 13.23 0 0 0-.595-3.938z" fill="#f04e98"/><path d="M20.935 11.583l11.13-1.395a13.33 13.33 0 0 0-12.45-8.184c-4.106 0-7.753 1.853-10.19 4.766l8.87 3.95a2.55 2.55 0 0 1 1.53 2.34v.015a2.55 2.55 0 0 1 1.11.507z" fill="#1ba9f5"/><path d="M20.935 20.417a2.55 2.55 0 0 1-1.11.507v.015a2.55 2.55 0 0 1-1.53 2.34l-8.87 3.95c2.437 2.913 6.084 4.766 10.19 4.766a13.33 13.33 0 0 0 12.45-8.184z" fill="#93c83e"/></svg>
