<svg xmlns="http://www.w3.org/2000/svg" width="64" height="64" viewBox="0 0 32 32"><path d="M5.8 24.6l.17-17.086L9.35 12.18z" fill="#ffc24a"/><path d="M5.8 24.6l3.55-12.42L12.62 2.49a1.04 1.04 0 0 1 1.82 0l13.77 22.1zm4.15-22.177L4.5 15.42a1.04 1.04 0 0 0 .07 1.34l13.68 10.94L9.35 12.18l.604-9.757z" fill="#ffa712"/><path d="M18.25 27.7L16.4 23.5l1.85-11.34 3.77 12.42z" fill="#f4bd62"/><path d="M18.246 27.704l7.59-4.64-2.86-14.74a.52.52 0 0 0-.93-.23z" fill="#ffa50e"/><path d="M26 27.4l-.17-3.35-1.65-6.06-2.83 10.01 4.15-2.41c.39-.22.52-.72.29-1.11z" fill="#f6820c"/></svg>
