<svg xmlns="http://www.w3.org/2000/svg" width="64" height="64" viewBox="0 0 32 32"><rect width="32" height="32" fill="#f7df1e"/><path d="M18.82 19.36c.467 1.008 1.233 2.008 2.917 2.008 1.225 0 2-.617 2-1.467 0-1.017-.8-1.375-2.142-1.967l-.733-.317c-2.125-.908-3.533-2.042-3.533-4.442 0-2.208 1.683-3.892 4.317-3.892 1.875 0 3.225.65 4.192 2.358l-2.292 1.467c-.508-.908-1.05-1.267-1.9-1.267-.867 0-1.417.55-1.417 1.267 0 .883.55 1.242 1.825 1.792l.733.317c2.5 1.075 3.908 2.167 3.908 4.625 0 2.65-2.083 4.1-4.875 4.1-2.733 0-4.5-1.3-5.367-3l2.367-1.358zm-10.225.083c.383.683.733 1.258 1.567 1.258.8 0 1.308-.317 1.308-1.542V9.333h2.908v9.858c0 2.542-1.492 3.7-3.667 3.7-1.967 0-3.1-1.017-3.683-2.242l2.567-1.467z"/></svg>
