<svg xmlns="http://www.w3.org/2000/svg" width="64" height="64" viewBox="0 0 32 32"><path d="M19.24 28.505c-7.563 1.896-15.525-.833-19.04-6.51 2.117 5.394 7.854 9.125 14.308 9.125 1.703 0 3.347-.275 4.876-.792zm3.427-2.52c-8.77 2.31-17.797-.832-21.973-7.5 2.647 6.896 9.756 11.802 18.058 11.802 1.64 0 3.226-.21 4.74-.602zm3.05-3.197C36.545 20.01 28.95 8.99 17.69 5.948c8.238.416 15.644 5.385 18.943 12.972 1.88 4.324 1.88 9.17.084 13.494zm2.13-8.49c.11-1.24.11-2.5-.002-3.74-.805-8.868-7.98-15.886-16.864-16.486 10.27.87 18.44 9.427 18.44 19.902 0 1.16-.1 2.292-.29 3.396z" fill="#0769ad"/></svg>
