<svg xmlns="http://www.w3.org/2000/svg" width="64" height="64" viewBox="0 0 32 32"><path d="M15.428 2.002a1.65 1.65 0 0 1 1.143 0l11.43 5.002a1.142 1.142 0 0 1 .571.857v11.428a1.14 1.14 0 0 1-.572.857l-11.428 5a1.65 1.65 0 0 1-1.143 0l-11.43-5.002a1.142 1.142 0 0 1-.571-.857V7.86c0-.357.185-.686.572-.857z" fill="#83cd29"/><path d="M21.34 17.125c.45 0 .86.072 1.143.215.286.143.5.357.643.643.143.286.215.643.215 1.072 0 .643-.215 1.215-.643 1.643-.428.429-1 .643-1.715.643H18.34v-4.216zm-.143 3.714c.5 0 .858-.143 1.143-.429.286-.286.429-.643.429-1.143 0-.357-.072-.643-.215-.857-.143-.215-.286-.357-.5-.5-.215-.072-.5-.143-.858-.143h-.785v3.072zM25.34 17.125h1.572l1.714 4.215h-.714l-.5-1.215h-1.786l-.5 1.215h-.714zm.786 1.643l-.643 1.5h1.286l-.643-1.5zM29.768 17.125h.857l2 2.786v-2.786h.643v4.215h-.786l-2.072-2.857v2.857h-.643z" fill="#333"/></svg>
