<svg xmlns="http://www.w3.org/2000/svg" width="64" height="64" viewBox="0 0 32 32"><rect width="32" height="32" fill="#3178c6"/><path d="M18.245 21.545v3.217c.473.216.98.396 1.52.54.54.144 1.124.216 1.753.216.628 0 1.207-.068 1.733-.204.527-.136.983-.347 1.367-.633.384-.286.684-.66.9-1.12.216-.46.324-.998.324-1.615 0-.472-.06-.888-.18-1.248a2.69 2.69 0 0 0-.54-.96 3.66 3.66 0 0 0-.888-.744 9.86 9.86 0 0 0-1.224-.588l-1.176-.456c-.304-.12-.564-.24-.78-.36a1.72 1.72 0 0 1-.48-.372.74.74 0 0 1-.156-.48c0-.16.04-.308.12-.444.08-.136.2-.256.36-.36s.356-.188.588-.252c.232-.064.496-.096.792-.096.336 0 .696.032 1.08.096.384.064.768.164 1.152.3V15.42a6.88 6.88 0 0 0-1.296-.324 9.01 9.01 0 0 0-1.488-.12c-.608 0-1.164.076-1.668.228a3.88 3.88 0 0 0-1.308.66c-.368.292-.652.652-.852 1.08-.2.428-.3.924-.3 1.488 0 .656.136 1.204.408 1.644.272.44.62.804 1.044 1.092.424.288.896.528 1.416.72.52.192.996.372 1.428.54.432.168.796.344 1.092.528.296.184.448.428.448.732 0 .16-.044.308-.132.444a1.18 1.18 0 0 1-.384.36c-.168.104-.376.188-.624.252a3.27 3.27 0 0 1-.84.096c-.448 0-.92-.052-1.416-.156a7.75 7.75 0 0 1-1.512-.468zM12 14.033h3.6v10.434h2.88V14.033h3.6V11.4H12v2.633z" fill="#fff"/></svg>
